<svg xmlns="http://www.w3.org/2000/svg">
    <!-- Created with the help of Yqnn's SVG Path Editor https://yqnn.github.io/svg-path-editor/ -->
    <path d="M 0 100 H 55 C 55 80 65 70 85 70 Q 100 60 68 52 Q 60 50 60 52 Q 60 60 50 60 Q 40 60 39 52 Q 39 50 31 52 Q 0 60 0 100 Z M 71 91 L 76 86 L 70 80 L 65 85 L 71 91 Z M 80.75 85 L 87.25 85 L 87.25 77 L 80.75 77 L 80.75 85 Z M 92 86 L 98 80 L 103 85 L 97 91 L 92 86 Z M 98 95.75 L 106 95.75 L 106 102.25 L 98 102.25 L 98 95.75 Z M 70 95.75 L 62 95.75 L 62 102.25 L 70 102.25 L 70 95.75 Z M 71 107 L 76 112 L 70 118 L 65 113 L 71 107 Z M 80.75 113 L 87.25 113 L 87.25 121 L 80.75 121 L 80.75 113 Z M 92 112 L 97 107 L 103 113 L 98 118 L 92 112" />
    <circle r="23" cx="50" cy="25"/>
    <circle stroke-width="6" r="14" cx="84" cy="99" fill-opacity="0" stroke="black"/>
</svg>