<svg xmlns="http://www.w3.org/2000/svg">
    <!-- Created with the help of Yqnn's SVG Path Editor https://yqnn.github.io/svg-path-editor/ -->
    <path fill="#808080" d="M 5.25 55.25 H 32.25 C 32.75 45.25 37.75 40.25 47.75 40.25 Q 55.25 35.25 39.25 31.25 Q 35.25 30.25 35.25 31.25 Q 35.25 35.25 30.25 35.25 Q 25.25 35.25 24.75 31.25 Q 24.75 30.25 20.75 31.25 Q 5.25 35.25 5.25 55.25 " />
    <path fill="#479cd6" d="M 40.75 50.75 L 43.25 48.25 L 40.25 45.25 L 37.75 47.75 L 40.75 50.75 Z M 45.625 47.75 L 48.875 47.75 L 48.875 43.75 L 45.625 43.75 L 45.625 47.75 Z M 51.25 48.25 L 54.25 45.25 L 56.75 47.75 L 53.75 50.75 L 51.25 48.25 Z M 54.25 53.125 L 58.25 53.125 L 58.25 56.375 L 54.25 56.375 L 54.25 53.125 Z M 40.25 53.125 L 36.25 53.125 L 36.25 56.375 L 40.25 56.375 L 40.25 53.125 Z M 40.75 58.75 L 43.25 61.25 L 40.25 64.25 L 37.75 61.75 L 40.75 58.75 Z M 45.625 61.75 L 48.875 61.75 L 48.875 65.75 L 45.625 65.75 L 45.625 61.75 Z M 51.25 61.25 L 53.75 58.75 L 56.75 61.75 L 54.25 64.25 L 51.25 61.25 Z" />
    <circle fill="#479cd6" r="11.5" cx="30.25" cy="17.75"/>
    <circle stroke="#479cd6" stroke-width="3" r="7" cx="47.25" cy="54.75" fill-opacity="0"/>
</svg>