<svg xmlns="http://www.w3.org/2000/svg" viewBox="0 0 69.5 80" class="icon">
    <!-- Created in Yqnn's SVG Path Editor https://yqnn.github.io/svg-path-editor/ -->
    <path fill="#479cd6" d="M 10 0 Q 0 0 0 10 V 70 Q 0 80 10 80 H 40 Q 45 80 45 75 Q 45 70 40 70 H 11 Q 10 70 10 69 V 11 Q 10 10 11 10 H 40 Q 45 10 45 5 Q 45 0 40 0 H 10" />    
    <path fill="#808080" d="M 20 44.5 Q 20 45.5 21 45.5 H 49 Q 50 45.5 50 46.5 V 59.5 Q 50 60.5 51 59.5 L 69 41.5 Q 70 40.5 69 39.5 L 51 21.5 Q 50 20.5 50 21.5 V 34.5 Q 50 35.5 49 35.5 H 21 Q 20 35.5 20 36.5 V 44.5" />
</svg>